<?xml version="1.0" encoding="utf-8"?>
<!-- Generator: Adobe Illustrator 18.0.0, SVG Export Plug-In . SVG Version: 6.00 Build 0)  -->
<!DOCTYPE svg PUBLIC "-//W3C//DTD SVG 1.1//EN" "http://www.w3.org/Graphics/SVG/1.1/DTD/svg11.dtd">
<svg version="1.1" id="Laag_1" xmlns="http://www.w3.org/2000/svg" xmlns:xlink="http://www.w3.org/1999/xlink" x="0px" y="0px"
	 viewBox="0 0 800 800" enable-background="new 0 0 800 800" xml:space="preserve">
<g>
	<circle fill="#9CCF58" stroke="#FFFFFF" stroke-width="6" stroke-miterlimit="10" cx="260" cy="120" r="20"/>
	<circle fill="#9CCF58" stroke="#FFFFFF" stroke-width="6" stroke-miterlimit="10" cx="260" cy="160" r="20"/>
	<circle fill="#9CCF58" stroke="#FFFFFF" stroke-width="6" stroke-miterlimit="10" cx="300" cy="160" r="20"/>
	<circle fill="#9CCF58" stroke="#FFFFFF" stroke-width="6" stroke-miterlimit="10" cx="220" cy="160" r="20"/>
	<circle fill="#9CCF58" stroke="#FFFFFF" stroke-width="6" stroke-miterlimit="10" cx="260" cy="200" r="20"/>
	<circle fill="#9CCF58" stroke="#FFFFFF" stroke-width="6" stroke-miterlimit="10" cx="340" cy="200" r="20"/>
	<circle fill="#9CCF58" stroke="#FFFFFF" stroke-width="6" stroke-miterlimit="10" cx="180" cy="200" r="20"/>
	<circle fill="#9CCF58" stroke="#FFFFFF" stroke-width="6" stroke-miterlimit="10" cx="260" cy="240" r="20"/>
	<circle fill="#9CCF58" stroke="#FFFFFF" stroke-width="6" stroke-miterlimit="10" cx="260" cy="280" r="20"/>
	<circle fill="#9CCF58" stroke="#FFFFFF" stroke-width="6" stroke-miterlimit="10" cx="260" cy="320" r="20"/>
	<circle fill="#9CCF58" stroke="#FFFFFF" stroke-width="6" stroke-miterlimit="10" cx="260" cy="360" r="20"/>
	<circle fill="#9CCF58" stroke="#FFFFFF" stroke-width="6" stroke-miterlimit="10" cx="260" cy="400" r="20"/>
	<circle fill="#9CCF58" stroke="#FFFFFF" stroke-width="6" stroke-miterlimit="10" cx="300" cy="400" r="20"/>
	<circle fill="#9CCF58" stroke="#FFFFFF" stroke-width="6" stroke-miterlimit="10" cx="260" cy="440" r="20"/>
	<circle fill="#9CCF58" stroke="#FFFFFF" stroke-width="6" stroke-miterlimit="10" cx="260" cy="479" r="20"/>
	<circle fill="#9CCF58" stroke="#FFFFFF" stroke-width="6" stroke-miterlimit="10" cx="260" cy="519" r="20"/>
	<circle fill="#9CCF58" stroke="#FFFFFF" stroke-width="6" stroke-miterlimit="10" cx="260" cy="559" r="20"/>
	<circle fill="#9CCF58" stroke="#FFFFFF" stroke-width="6" stroke-miterlimit="10" cx="300" cy="559" r="20"/>
	<circle fill="#9CCF58" stroke="#FFFFFF" stroke-width="6" stroke-miterlimit="10" cx="260" cy="599" r="20"/>
	<circle fill="#9CCF58" stroke="#FFFFFF" stroke-width="6" stroke-miterlimit="10" cx="260" cy="639" r="20"/>
	<circle fill="#9CCF58" stroke="#FFFFFF" stroke-width="6" stroke-miterlimit="10" cx="300" cy="639" r="20"/>
	<circle fill="#9CCF58" stroke="#FFFFFF" stroke-width="6" stroke-miterlimit="10" cx="220" cy="639" r="20"/>
	<circle fill="#9CCF58" stroke="#FFFFFF" stroke-width="6" stroke-miterlimit="10" cx="260" cy="679" r="20"/>
	<circle fill="#9CCF58" stroke="#FFFFFF" stroke-width="6" stroke-miterlimit="10" cx="340" cy="599" r="20"/>
	<circle fill="#9CCF58" stroke="#FFFFFF" stroke-width="6" stroke-miterlimit="10" cx="180" cy="599" r="20"/>
	<circle fill="#9CCF58" stroke="#FFFFFF" stroke-width="6" stroke-miterlimit="10" cx="380" cy="400" r="20"/>
	<circle fill="#9CCF58" stroke="#FFFFFF" stroke-width="6" stroke-miterlimit="10" cx="460" cy="401" r="20"/>
	<circle fill="#9CCF58" stroke="#FFFFFF" stroke-width="6" stroke-miterlimit="10" cx="340" cy="400" r="20"/>
	<circle fill="#9CCF58" stroke="#FFFFFF" stroke-width="6" stroke-miterlimit="10" cx="540" cy="361" r="20"/>
	<circle fill="#9CCF58" stroke="#FFFFFF" stroke-width="6" stroke-miterlimit="10" cx="540" cy="401" r="20"/>
	<circle fill="#9CCF58" stroke="#FFFFFF" stroke-width="6" stroke-miterlimit="10" cx="500" cy="401" r="20"/>
	<circle fill="#9CCF58" stroke="#FFFFFF" stroke-width="6" stroke-miterlimit="10" cx="540" cy="441" r="20"/>
	<circle fill="#9CCF58" stroke="#FFFFFF" stroke-width="6" stroke-miterlimit="10" cx="540" cy="480" r="20"/>
	<circle fill="#9CCF58" stroke="#FFFFFF" stroke-width="6" stroke-miterlimit="10" cx="540" cy="520" r="20"/>
	<circle fill="#9CCF58" stroke="#FFFFFF" stroke-width="6" stroke-miterlimit="10" cx="540" cy="560" r="20"/>
	<circle fill="#9CCF58" stroke="#FFFFFF" stroke-width="6" stroke-miterlimit="10" cx="540" cy="241" r="20"/>
	<circle fill="#9CCF58" stroke="#FFFFFF" stroke-width="6" stroke-miterlimit="10" cx="540" cy="281" r="20"/>
	<circle fill="#9CCF58" stroke="#FFFFFF" stroke-width="6" stroke-miterlimit="10" cx="540" cy="321" r="20"/>
	<circle fill="#9CCF58" stroke="#FFFFFF" stroke-width="6" stroke-miterlimit="10" cx="540" cy="600" r="20"/>
	<circle fill="#9CCF58" stroke="#FFFFFF" stroke-width="6" stroke-miterlimit="10" cx="540" cy="640" r="20"/>
	<circle fill="#9CCF58" stroke="#FFFFFF" stroke-width="6" stroke-miterlimit="10" cx="580" cy="640" r="20"/>
	<circle fill="#9CCF58" stroke="#FFFFFF" stroke-width="6" stroke-miterlimit="10" cx="500" cy="640" r="20"/>
	<circle fill="#9CCF58" stroke="#FFFFFF" stroke-width="6" stroke-miterlimit="10" cx="540" cy="680" r="20"/>
	<circle fill="#9CCF58" stroke="#FFFFFF" stroke-width="6" stroke-miterlimit="10" cx="620" cy="600" r="20"/>
	<circle fill="#9CCF58" stroke="#FFFFFF" stroke-width="6" stroke-miterlimit="10" cx="460" cy="600" r="20"/>
	<circle fill="#9CCF58" stroke="#FFFFFF" stroke-width="6" stroke-miterlimit="10" cx="540" cy="121" r="20"/>
	<circle fill="#9CCF58" stroke="#FFFFFF" stroke-width="6" stroke-miterlimit="10" cx="540" cy="161" r="20"/>
	<circle fill="#9CCF58" stroke="#FFFFFF" stroke-width="6" stroke-miterlimit="10" cx="580" cy="161" r="20"/>
	<circle fill="#9CCF58" stroke="#FFFFFF" stroke-width="6" stroke-miterlimit="10" cx="500" cy="161" r="20"/>
	<circle fill="#9CCF58" stroke="#FFFFFF" stroke-width="6" stroke-miterlimit="10" cx="540" cy="201" r="20"/>
	<circle fill="#9CCF58" stroke="#FFFFFF" stroke-width="6" stroke-miterlimit="10" cx="620" cy="201" r="20"/>
	<circle fill="#9CCF58" stroke="#FFFFFF" stroke-width="6" stroke-miterlimit="10" cx="460" cy="201" r="20"/>
	<circle fill="#9CCF58" stroke="#FFFFFF" stroke-width="6" stroke-miterlimit="10" cx="420" cy="400" r="20"/>
	<g>
		<circle fill="#999B9D" stroke="#FFFFFF" stroke-width="6" stroke-miterlimit="10" cx="300" cy="200" r="20"/>
		<circle fill="#999B9D" stroke="#FFFFFF" stroke-width="6" stroke-miterlimit="10" cx="220" cy="200" r="20"/>
		<circle fill="#999B9D" stroke="#FFFFFF" stroke-width="6" stroke-miterlimit="10" cx="300" cy="240" r="20"/>
		<circle fill="#999B9D" stroke="#FFFFFF" stroke-width="6" stroke-miterlimit="10" cx="220" cy="240" r="20"/>
		<circle fill="#999B9D" stroke="#FFFFFF" stroke-width="6" stroke-miterlimit="10" cx="300" cy="280" r="20"/>
		<circle fill="#999B9D" stroke="#FFFFFF" stroke-width="6" stroke-miterlimit="10" cx="220" cy="280" r="20"/>
		<circle fill="#999B9D" stroke="#FFFFFF" stroke-width="6" stroke-miterlimit="10" cx="300" cy="320" r="20"/>
		<circle fill="#999B9D" stroke="#FFFFFF" stroke-width="6" stroke-miterlimit="10" cx="220" cy="320" r="20"/>
		<circle fill="#999B9D" stroke="#FFFFFF" stroke-width="6" stroke-miterlimit="10" cx="300" cy="360" r="20"/>
		<circle fill="#999B9D" stroke="#FFFFFF" stroke-width="6" stroke-miterlimit="10" cx="220" cy="360" r="20"/>
		<circle fill="#999B9D" stroke="#FFFFFF" stroke-width="6" stroke-miterlimit="10" cx="220" cy="400" r="20"/>
		<circle fill="#999B9D" stroke="#FFFFFF" stroke-width="6" stroke-miterlimit="10" cx="300" cy="440" r="20"/>
		<circle fill="#999B9D" stroke="#FFFFFF" stroke-width="6" stroke-miterlimit="10" cx="220" cy="440" r="20"/>
		<circle fill="#999B9D" stroke="#FFFFFF" stroke-width="6" stroke-miterlimit="10" cx="300" cy="479" r="20"/>
		<circle fill="#999B9D" stroke="#FFFFFF" stroke-width="6" stroke-miterlimit="10" cx="220" cy="479" r="20"/>
		<circle fill="#999B9D" stroke="#FFFFFF" stroke-width="6" stroke-miterlimit="10" cx="300" cy="519" r="20"/>
		<circle fill="#999B9D" stroke="#FFFFFF" stroke-width="6" stroke-miterlimit="10" cx="220" cy="519" r="20"/>
		<circle fill="#999B9D" stroke="#FFFFFF" stroke-width="6" stroke-miterlimit="10" cx="220" cy="559" r="20"/>
		<circle fill="#999B9D" stroke="#FFFFFF" stroke-width="6" stroke-miterlimit="10" cx="300" cy="599" r="20"/>
		<circle fill="#999B9D" stroke="#FFFFFF" stroke-width="6" stroke-miterlimit="10" cx="220" cy="599" r="20"/>
		<circle fill="#999B9D" stroke="#FFFFFF" stroke-width="6" stroke-miterlimit="10" cx="380" cy="360" r="20"/>
		<circle fill="#999B9D" stroke="#FFFFFF" stroke-width="6" stroke-miterlimit="10" cx="460" cy="361" r="20"/>
		<circle fill="#999B9D" stroke="#FFFFFF" stroke-width="6" stroke-miterlimit="10" cx="340" cy="360" r="20"/>
		<circle fill="#999B9D" stroke="#FFFFFF" stroke-width="6" stroke-miterlimit="10" cx="380" cy="440" r="20"/>
		<circle fill="#999B9D" stroke="#FFFFFF" stroke-width="6" stroke-miterlimit="10" cx="460" cy="441" r="20"/>
		<circle fill="#999B9D" stroke="#FFFFFF" stroke-width="6" stroke-miterlimit="10" cx="340" cy="440" r="20"/>
		<circle fill="#999B9D" stroke="#FFFFFF" stroke-width="6" stroke-miterlimit="10" cx="580" cy="361" r="20"/>
		<circle fill="#999B9D" stroke="#FFFFFF" stroke-width="6" stroke-miterlimit="10" cx="500" cy="361" r="20"/>
		<circle fill="#999B9D" stroke="#FFFFFF" stroke-width="6" stroke-miterlimit="10" cx="580" cy="401" r="20"/>
		<circle fill="#999B9D" stroke="#FFFFFF" stroke-width="6" stroke-miterlimit="10" cx="580" cy="441" r="20"/>
		<circle fill="#999B9D" stroke="#FFFFFF" stroke-width="6" stroke-miterlimit="10" cx="500" cy="441" r="20"/>
		<circle fill="#999B9D" stroke="#FFFFFF" stroke-width="6" stroke-miterlimit="10" cx="580" cy="480" r="20"/>
		<circle fill="#999B9D" stroke="#FFFFFF" stroke-width="6" stroke-miterlimit="10" cx="500" cy="480" r="20"/>
		<circle fill="#999B9D" stroke="#FFFFFF" stroke-width="6" stroke-miterlimit="10" cx="580" cy="520" r="20"/>
		<circle fill="#999B9D" stroke="#FFFFFF" stroke-width="6" stroke-miterlimit="10" cx="500" cy="520" r="20"/>
		<circle fill="#999B9D" stroke="#FFFFFF" stroke-width="6" stroke-miterlimit="10" cx="580" cy="560" r="20"/>
		<circle fill="#999B9D" stroke="#FFFFFF" stroke-width="6" stroke-miterlimit="10" cx="500" cy="560" r="20"/>
		<circle fill="#999B9D" stroke="#FFFFFF" stroke-width="6" stroke-miterlimit="10" cx="580" cy="241" r="20"/>
		<circle fill="#999B9D" stroke="#FFFFFF" stroke-width="6" stroke-miterlimit="10" cx="500" cy="241" r="20"/>
		<circle fill="#999B9D" stroke="#FFFFFF" stroke-width="6" stroke-miterlimit="10" cx="580" cy="281" r="20"/>
		<circle fill="#999B9D" stroke="#FFFFFF" stroke-width="6" stroke-miterlimit="10" cx="500" cy="281" r="20"/>
		<circle fill="#999B9D" stroke="#FFFFFF" stroke-width="6" stroke-miterlimit="10" cx="580" cy="321" r="20"/>
		<circle fill="#999B9D" stroke="#FFFFFF" stroke-width="6" stroke-miterlimit="10" cx="500" cy="321" r="20"/>
		<circle fill="#999B9D" stroke="#FFFFFF" stroke-width="6" stroke-miterlimit="10" cx="580" cy="600" r="20"/>
		<circle fill="#999B9D" stroke="#FFFFFF" stroke-width="6" stroke-miterlimit="10" cx="500" cy="600" r="20"/>
		<circle fill="#999B9D" stroke="#FFFFFF" stroke-width="6" stroke-miterlimit="10" cx="580" cy="201" r="20"/>
		<circle fill="#999B9D" stroke="#FFFFFF" stroke-width="6" stroke-miterlimit="10" cx="500" cy="201" r="20"/>
		<circle fill="#999B9D" stroke="#FFFFFF" stroke-width="6" stroke-miterlimit="10" cx="420" cy="360" r="20"/>
		<circle fill="#999B9D" stroke="#FFFFFF" stroke-width="6" stroke-miterlimit="10" cx="420" cy="440" r="20"/>
	</g>
</g>
</svg>
